<svg width="108" height="101" viewBox="0 0 108 101" fill="none" xmlns="http://www.w3.org/2000/svg">
<path d="M104.702 37.5208L90.4394 12.9382C85.6851 5.17528 77.4732 0 67.9646 0H39.8711C30.7948 0 22.1506 4.74401 17.3964 12.9382L3.56571 37.5208C-1.18857 45.2837 -1.18857 55.203 3.56571 63.3972L17.8286 87.9798C22.5828 95.7427 30.7948 100.918 40.3034 100.918H68.3968C77.4732 100.918 86.1174 96.174 90.8716 87.9798L105.134 63.3972C109.024 55.6343 109.024 45.715 104.702 37.5208ZM61.9137 52.6154L55.4306 59.0845C54.9984 59.5158 54.134 59.947 53.7018 59.947C53.2696 59.947 52.4052 59.5158 51.973 59.0845C51.1085 58.2219 51.1085 56.4968 51.973 55.203L53.7018 53.4779H42.8966V60.8096C42.8966 64.691 39.8711 67.2787 36.4135 67.2787H32.0914C28.2015 67.2787 25.6083 64.2598 25.6083 60.8096V40.5397C25.6083 36.6583 28.6338 34.0706 32.0914 34.0706H35.9813C39.8711 34.0706 42.4644 37.0895 42.4644 40.5397V47.8714H53.2696L51.5408 46.1463C50.6763 45.2837 50.6763 43.5586 51.5408 42.2648C52.4052 41.4023 54.134 41.4023 55.4306 42.2648L61.9137 48.7339C62.3459 49.1652 62.7781 50.0277 62.7781 50.459C62.7781 51.3216 62.3459 51.7528 61.9137 52.6154ZM82.2275 66.8474C82.2275 70.7289 79.6342 73.3165 76.1766 73.3165H72.2867C68.3969 73.3165 65.8036 70.2976 65.8036 66.8474V34.5019C65.8036 30.6204 68.8291 28.0328 72.2867 28.0328H75.7444C79.6342 28.0328 82.2275 31.0517 82.2275 34.5019V66.8474Z" fill="white"/>
</svg>
