<svg width="272" height="20" viewBox="0 0 272 20" fill="none" xmlns="http://www.w3.org/2000/svg">
<path d="M93.7536 3.82715V8.02009H88.9616V3.82715H86.7368V14.609H88.9616V10.0738H93.7536V14.609H95.9784V3.82715H93.7536Z" fill="white"/>
<path d="M101.284 17.6893L105.99 6.90747H103.851L102.054 11.0148H101.626L99.6579 6.90747H97.4331L100.685 13.8387L99.0589 17.6893H101.284Z" fill="white"/>
<path d="M111.21 8.44785C112.494 8.44785 113.093 9.47469 113.093 10.7582C113.093 12.0418 112.494 13.0686 111.21 13.0686C109.927 13.0686 109.328 11.9562 109.328 10.7582C109.328 9.56026 109.927 8.44785 111.21 8.44785ZM107.274 6.90759V17.6894H109.413V13.9243H109.841C110.269 14.4378 110.868 14.8656 111.98 14.8656C114.034 14.8656 115.232 13.1542 115.232 10.7582C115.232 8.44785 114.034 6.65088 111.98 6.65088C110.868 6.65088 110.269 6.99316 109.841 7.59215H109.413V6.90759H107.274Z" fill="white"/>
<path d="M124.216 10.3304C124.131 8.19114 122.847 6.65088 120.451 6.65088C118.055 6.65088 116.515 8.19114 116.515 10.6727C116.515 13.1542 117.97 14.78 120.451 14.78C122.591 14.78 123.789 13.7532 124.045 12.2129H121.906C121.735 12.7264 121.221 13.0686 120.451 13.0686C119.253 13.0686 118.654 12.2985 118.569 11.015H124.131V10.3304H124.216ZM120.451 8.27671C121.393 8.27671 121.906 8.79013 122.077 9.64583H118.74C118.911 8.79013 119.425 8.27671 120.451 8.27671Z" fill="white"/>
<path d="M131.233 6.90747H130.548C129.35 6.90747 128.666 7.42089 128.495 7.76317H128.067V6.90747H126.013V14.6944H128.152V11.2715C128.152 9.73129 128.923 8.87558 130.548 8.87558H131.319V6.90747H131.233Z" fill="white"/>
<path d="M139.105 9.04648C138.934 7.67736 137.736 6.73608 135.854 6.73608C133.543 6.73608 132.517 7.8485 132.517 9.13205C132.517 10.5012 133.372 11.0146 134.57 11.2713L136.111 11.528C136.881 11.6992 137.223 11.8703 137.223 12.3837C137.223 12.9827 136.71 13.2394 135.854 13.2394C134.998 13.2394 134.399 12.8971 134.314 12.2126H132.174C132.345 13.8384 133.458 14.8652 135.854 14.8652C138.164 14.8652 139.277 13.6673 139.277 12.3837C139.277 10.8435 138.25 10.1589 136.795 9.90218L135.426 9.73104C134.913 9.64547 134.57 9.5599 134.57 9.13205C134.57 8.7042 135.084 8.44749 135.683 8.44749C136.367 8.44749 136.795 8.61863 136.966 9.13205H139.105V9.04648Z" fill="white"/>
<path d="M148.775 14.6087L146.122 9.21782L148.347 6.82186H145.951L143.042 9.81681V3.65576H140.902V14.6087H143.042V12.3839L144.24 11.0148H144.667L146.464 14.6943H148.775V14.6087Z" fill="white"/>
<path d="M152.198 5.53831V3.65576H150.059V5.53831H152.198ZM152.198 6.90743H150.059V14.6943H152.198V6.90743Z" fill="white"/>
<path d="M154.423 3.65576V14.6087H156.562V3.65576H154.423Z" fill="white"/>
<path d="M158.787 3.65576V14.6087H160.926V3.65576H158.787Z" fill="white"/>
<path d="M78.75 7.4359L75.9233 2.5641C74.9811 1.02564 73.3537 0 71.4693 0H65.9017C64.1029 0 62.3898 0.940171 61.4476 2.5641L58.7067 7.4359C57.7644 8.97436 57.7644 10.9402 58.7067 12.5641L61.5333 17.4359C62.4755 18.9744 64.1029 20 65.9873 20H71.5549C73.3537 20 75.0668 19.0598 76.009 17.4359L78.8356 12.5641C79.6065 11.0256 79.6065 9.05983 78.75 7.4359ZM70.2701 10.4274L68.9853 11.7094C68.8996 11.7949 68.7283 11.8803 68.6427 11.8803C68.557 11.8803 68.3857 11.7949 68.3 11.7094C68.1287 11.5385 68.1287 11.1966 68.3 10.9402L68.6427 10.5983H66.5013V12.0513C66.5013 12.8205 65.9017 13.3333 65.2164 13.3333H64.3599C63.589 13.3333 63.0751 12.735 63.0751 12.0513V8.03419C63.0751 7.26496 63.6747 6.75214 64.3599 6.75214H65.1308C65.9017 6.75214 66.4156 7.35043 66.4156 8.03419V9.48718H68.557L68.2144 9.1453C68.0431 8.97436 68.0431 8.63248 68.2144 8.37607C68.3857 8.20513 68.7283 8.20513 68.9853 8.37607L70.2701 9.65812C70.3558 9.74359 70.4414 9.91453 70.4414 10C70.4414 10.1709 70.3558 10.2564 70.2701 10.4274ZM74.2959 13.2479C74.2959 14.0171 73.782 14.5299 73.0967 14.5299H72.3258C71.5549 14.5299 71.041 13.9316 71.041 13.2479V6.83761C71.041 6.06838 71.6406 5.55556 72.3258 5.55556H73.0111C73.782 5.55556 74.2959 6.15385 74.2959 6.83761V13.2479Z" fill="white"/>
<path d="M170.857 15H177.83V13.8281H172.666V13.7988L175.178 11.2207C177.119 9.23584 177.654 8.36426 177.654 7.20703V7.19238C177.654 5.53711 176.255 4.25537 174.343 4.25537C172.373 4.25537 170.791 5.61035 170.791 7.44141V7.48535H172.065V7.44873C172.065 6.31348 173.047 5.40527 174.365 5.40527C175.515 5.40527 176.328 6.18164 176.335 7.2583V7.27295C176.335 8.15186 176.006 8.72314 174.578 10.21L170.857 14.0918V15ZM183.037 15.1758C185.469 15.1758 186.926 13.0737 186.926 9.71924V9.70459C186.926 6.3501 185.469 4.25537 183.037 4.25537C180.605 4.25537 179.163 6.3501 179.163 9.70459V9.71924C179.163 13.0737 180.605 15.1758 183.037 15.1758ZM183.037 14.0259C181.426 14.0259 180.488 12.3706 180.488 9.71924V9.70459C180.488 7.05322 181.426 5.4126 183.037 5.4126C184.648 5.4126 185.601 7.05322 185.601 9.70459V9.71924C185.601 12.3706 184.648 14.0259 183.037 14.0259ZM188.303 15H195.276V13.8281H190.112V13.7988L192.625 11.2207C194.565 9.23584 195.1 8.36426 195.1 7.20703V7.19238C195.1 5.53711 193.701 4.25537 191.79 4.25537C189.819 4.25537 188.237 5.61035 188.237 7.44141V7.48535H189.512V7.44873C189.512 6.31348 190.493 5.40527 191.812 5.40527C192.961 5.40527 193.774 6.18164 193.782 7.2583V7.27295C193.782 8.15186 193.452 8.72314 192.024 10.21L188.303 14.0918V15ZM196.799 15H203.772V13.8281H198.608V13.7988L201.121 11.2207C203.062 9.23584 203.596 8.36426 203.596 7.20703V7.19238C203.596 5.53711 202.197 4.25537 200.286 4.25537C198.315 4.25537 196.733 5.61035 196.733 7.44141V7.48535H198.008V7.44873C198.008 6.31348 198.989 5.40527 200.308 5.40527C201.458 5.40527 202.271 6.18164 202.278 7.2583V7.27295C202.278 8.15186 201.948 8.72314 200.52 10.21L196.799 14.0918V15Z" fill="white"/>
</svg>
